<?xml version="1.0" encoding="utf-8"?><svg viewBox="0 0 40 40" xmlns="http://www.w3.org/2000/svg" xmlns:xlink="http://www.w3.org/1999/xlink"><style>:root>svg{display:none}:root>svg:target{display:block}</style><svg fill="none" viewBox="0 0 20 20" id="hero--icon" xmlns="http://www.w3.org/2000/svg"><path d="M10 0C4.478 0 0 4.478 0 10c0 5.523 4.478 10 10 10 5.523 0 10-4.477 10-10 0-5.522-4.477-10-10-10zm4.623 10.33c.121.197.089.45-.078.61-.365.348-1.11.693-1.607.628l-1.17-1.888 1.771-1.097 1.084 1.747zM5 11.67c0-.593.385-1.392.673-1.93l-.64-.412 2.25-.257.802 2.093-.633-.4c-.617 1.001-1.184 2.173-.824 3.29C5.585 13.17 5 12.49 5 11.67zm4.583 2.497H7.527c-.23 0-.43-.161-.477-.388-.104-.493-.004-1.308.313-1.696h2.22v2.084zm-.99-5.148L6.775 8.002l1.003-1.794a.487.487 0 01.572-.228c.48.15 1.143.636 1.328 1.102L8.593 9.019zm-.277-3.542C9.109 5.183 9.747 5 10.29 5c.933 0 1.475.527 2.258 1.75l.671-.357-.874 2.09-2.218-.323.658-.357c-.572-1.027-1.318-2.094-2.47-2.325zm5.516 8.318c-.504.313-1.398.406-2.007.445V15l-1.404-1.777 1.404-1.784v.748c1.176-.002 2.416-.139 3.176-1.033-.203 1.354-.472 2.209-1.17 2.641z" fill="url(#apaint0_linear_2_233)"/><defs><linearGradient id="apaint0_linear_2_233" x1="10" y1="0" x2="10" y2="20" gradientUnits="userSpaceOnUse"><stop stop-color="#F48E77"/><stop offset="1" stop-color="#D85F2A"/></linearGradient></defs></svg><svg fill="none" viewBox="0 0 40 40" id="presentation--arrow-next" xmlns="http://www.w3.org/2000/svg"><rect width="40" height="40" rx="20" fill="url(#bpaint0_linear_2_128)"/><path d="M17.667 26.333l5.4-5.4a1.333 1.333 0 000-1.866l-5.4-5.4" stroke="#fff" stroke-width="2" stroke-linecap="round" stroke-linejoin="round"/><defs><linearGradient id="bpaint0_linear_2_128" x1="20" y1="0" x2="20" y2="40" gradientUnits="userSpaceOnUse"><stop stop-color="#BCD47B"/><stop offset="1" stop-color="#7FB845"/></linearGradient></defs></svg><svg fill="none" viewBox="0 0 40 40" id="presentation--arrow-prev" xmlns="http://www.w3.org/2000/svg"><rect width="40" height="40" rx="20" fill="url(#cpaint0_linear_2_124)"/><path d="M22.334 13.667L16.94 19.06a1.333 1.333 0 000 1.88l5.393 5.393" stroke="#fff" stroke-width="2" stroke-linecap="round" stroke-linejoin="round"/><defs><linearGradient id="cpaint0_linear_2_124" x1="20" y1="0" x2="20" y2="40" gradientUnits="userSpaceOnUse"><stop stop-color="#BCD47B"/><stop offset="1" stop-color="#7FB845"/></linearGradient></defs></svg><svg fill="none" viewBox="0 0 30 30" id="presentation--clinic" xmlns="http://www.w3.org/2000/svg"><path d="M25.625 9.375h-3.75a1.25 1.25 0 01-1.25-1.25v-3.75a1.25 1.25 0 00-1.25-1.25h-8.75a1.25 1.25 0 00-1.25 1.25v3.75a1.25 1.25 0 01-1.25 1.25h-3.75a1.25 1.25 0 00-1.25 1.25v8.75a1.25 1.25 0 001.25 1.25h3.75a1.25 1.25 0 011.25 1.25v3.75a1.25 1.25 0 001.25 1.25h8.75a1.25 1.25 0 001.25-1.25v-3.75a1.25 1.25 0 011.25-1.25h3.75a1.25 1.25 0 001.25-1.25v-8.75a1.25 1.25 0 00-1.25-1.25z" stroke="#fff" stroke-width="2" stroke-linecap="round" stroke-linejoin="round"/></svg><svg fill="none" viewBox="0 0 30 30" id="presentation--employer" xmlns="http://www.w3.org/2000/svg"><path d="M24.375 8.125H5.625a2.5 2.5 0 00-2.5 2.5v11.25a2.5 2.5 0 002.5 2.5h18.75a2.5 2.5 0 002.5-2.5v-11.25a2.5 2.5 0 00-2.5-2.5zM13.125 4.375h3.75a1.25 1.25 0 011.25 1.25v2.5h-6.25v-2.5a1.25 1.25 0 011.25-1.25v0z" stroke="#fff" stroke-width="2" stroke-linecap="round" stroke-linejoin="round"/><path d="M16.875 14.375h-3.75v2.5h3.75v-2.5zM3.125 11.875L4.138 13.4A5 5 0 008.3 15.625h4.825M26.875 11.875L25.863 13.4a5 5 0 01-4.163 2.225h-4.825" stroke="#fff" stroke-width="2" stroke-linecap="round" stroke-linejoin="round"/></svg><svg fill="none" viewBox="0 0 30 30" id="presentation--hospital" xmlns="http://www.w3.org/2000/svg"><path d="M1.875 15h2.5l2.5-2.5 2.5 5 3.75-15.625 3.75 26.25 3.75-15.625 2.5 5 2.5-2.5h2.5" stroke="#fff" stroke-width="2" stroke-linecap="round" stroke-linejoin="round"/></svg><svg fill="none" viewBox="0 0 30 30" id="presentation--net" xmlns="http://www.w3.org/2000/svg"><path d="M23.325 26.875H6.675a2.5 2.5 0 01-2.5-2.3l-.95-11.35a1.25 1.25 0 011.25-1.35h21.05a1.25 1.25 0 011.25 1.35l-.95 11.35a2.5 2.5 0 01-2.5 2.3v0zM9.375 16.875v1.25M9.375 20.625v1.25M13.125 16.875v1.25M13.125 20.625v1.25M16.875 16.875v1.25M16.875 20.625v1.25M20.625 16.875v1.25M20.625 20.625v1.25M8.125 13.125l5-10M21.875 13.125l-5-10" stroke="#fff" stroke-width="2" stroke-linecap="round" stroke-linejoin="round"/></svg><svg fill="none" viewBox="0 0 30 30" id="price--ready" xmlns="http://www.w3.org/2000/svg"><rect width="30" height="30" rx="15" fill="url(#hpaint0_linear_2_187)"/><path d="M11.042 15.208l2.125 2.125a.833.833 0 001.167 0l4.625-4.625" stroke="#fff" stroke-width="2" stroke-linecap="round" stroke-linejoin="round"/><defs><linearGradient id="hpaint0_linear_2_187" x1="15" y1="0" x2="15" y2="30" gradientUnits="userSpaceOnUse"><stop stop-color="#F48E77"/><stop offset="1" stop-color="#D85F2A"/></linearGradient></defs></svg></svg>