<svg width="30" height="30" viewBox="0 0 30 30" fill="none" xmlns="http://www.w3.org/2000/svg">
<path d="M25.625 9.375H21.875C21.5435 9.375 21.2255 9.2433 20.9911 9.00888C20.7567 8.77446 20.625 8.45652 20.625 8.125V4.375C20.625 4.04348 20.4933 3.72554 20.2589 3.49112C20.0245 3.2567 19.7065 3.125 19.375 3.125H10.625C10.2935 3.125 9.97554 3.2567 9.74112 3.49112C9.5067 3.72554 9.375 4.04348 9.375 4.375V8.125C9.375 8.45652 9.2433 8.77446 9.00888 9.00888C8.77446 9.2433 8.45652 9.375 8.125 9.375H4.375C4.04348 9.375 3.72554 9.5067 3.49112 9.74112C3.2567 9.97554 3.125 10.2935 3.125 10.625V19.375C3.125 19.7065 3.2567 20.0245 3.49112 20.2589C3.72554 20.4933 4.04348 20.625 4.375 20.625H8.125C8.45652 20.625 8.77446 20.7567 9.00888 20.9911C9.2433 21.2255 9.375 21.5435 9.375 21.875V25.625C9.375 25.9565 9.5067 26.2745 9.74112 26.5089C9.97554 26.7433 10.2935 26.875 10.625 26.875H19.375C19.7065 26.875 20.0245 26.7433 20.2589 26.5089C20.4933 26.2745 20.625 25.9565 20.625 25.625V21.875C20.625 21.5435 20.7567 21.2255 20.9911 20.9911C21.2255 20.7567 21.5435 20.625 21.875 20.625H25.625C25.9565 20.625 26.2745 20.4933 26.5089 20.2589C26.7433 20.0245 26.875 19.7065 26.875 19.375V10.625C26.875 10.2935 26.7433 9.97554 26.5089 9.74112C26.2745 9.5067 25.9565 9.375 25.625 9.375Z" stroke="white" stroke-width="2" stroke-linecap="round" stroke-linejoin="round"/>
</svg>
