<svg width="30" height="30" viewBox="0 0 30 30" fill="none" xmlns="http://www.w3.org/2000/svg">
<path d="M24.375 8.125H5.625C4.24429 8.125 3.125 9.24429 3.125 10.625V21.875C3.125 23.2557 4.24429 24.375 5.625 24.375H24.375C25.7557 24.375 26.875 23.2557 26.875 21.875V10.625C26.875 9.24429 25.7557 8.125 24.375 8.125Z" stroke="white" stroke-width="2" stroke-linecap="round" stroke-linejoin="round"/>
<path d="M13.125 4.375H16.875C17.2065 4.375 17.5245 4.5067 17.7589 4.74112C17.9933 4.97554 18.125 5.29348 18.125 5.625V8.125H11.875V5.625C11.875 5.29348 12.0067 4.97554 12.2411 4.74112C12.4755 4.5067 12.7935 4.375 13.125 4.375V4.375Z" stroke="white" stroke-width="2" stroke-linecap="round" stroke-linejoin="round"/>
<path d="M16.875 14.375H13.125V16.875H16.875V14.375Z" stroke="white" stroke-width="2" stroke-linecap="round" stroke-linejoin="round"/>
<path d="M3.125 11.875L4.1375 13.4C4.59448 14.0849 5.21354 14.6464 5.93969 15.0346C6.66584 15.4227 7.47662 15.6255 8.3 15.625H13.125" stroke="white" stroke-width="2" stroke-linecap="round" stroke-linejoin="round"/>
<path d="M26.875 11.875L25.8625 13.4C25.4055 14.0849 24.7865 14.6464 24.0603 15.0346C23.3342 15.4227 22.5234 15.6255 21.7 15.625H16.875" stroke="white" stroke-width="2" stroke-linecap="round" stroke-linejoin="round"/>
</svg>
