<svg width="30" height="30" viewBox="0 0 30 30" fill="none" xmlns="http://www.w3.org/2000/svg">
<path d="M23.3247 26.875H6.67471C6.04491 26.877 5.43755 26.6413 4.97406 26.2148C4.51056 25.7884 4.22509 25.2028 4.17471 24.575L3.22471 13.225C3.21088 13.0526 3.23295 12.8793 3.28955 12.7159C3.34614 12.5525 3.43602 12.4026 3.5535 12.2757C3.67098 12.1489 3.81351 12.0477 3.97208 11.9788C4.13064 11.9098 4.30179 11.8745 4.47471 11.875H25.5247C25.6976 11.8745 25.8688 11.9098 26.0273 11.9788C26.1859 12.0477 26.3284 12.1489 26.4459 12.2757C26.5634 12.4026 26.6533 12.5525 26.7099 12.7159C26.7665 12.8793 26.7885 13.0526 26.7747 13.225L25.8247 24.575C25.7743 25.2028 25.4889 25.7884 25.0254 26.2148C24.5619 26.6413 23.9545 26.877 23.3247 26.875V26.875Z" stroke="white" stroke-width="2" stroke-linecap="round" stroke-linejoin="round"/>
<path d="M9.375 16.875V18.125" stroke="white" stroke-width="2" stroke-linecap="round" stroke-linejoin="round"/>
<path d="M9.375 20.625V21.875" stroke="white" stroke-width="2" stroke-linecap="round" stroke-linejoin="round"/>
<path d="M13.125 16.875V18.125" stroke="white" stroke-width="2" stroke-linecap="round" stroke-linejoin="round"/>
<path d="M13.125 20.625V21.875" stroke="white" stroke-width="2" stroke-linecap="round" stroke-linejoin="round"/>
<path d="M16.875 16.875V18.125" stroke="white" stroke-width="2" stroke-linecap="round" stroke-linejoin="round"/>
<path d="M16.875 20.625V21.875" stroke="white" stroke-width="2" stroke-linecap="round" stroke-linejoin="round"/>
<path d="M20.625 16.875V18.125" stroke="white" stroke-width="2" stroke-linecap="round" stroke-linejoin="round"/>
<path d="M20.625 20.625V21.875" stroke="white" stroke-width="2" stroke-linecap="round" stroke-linejoin="round"/>
<path d="M8.125 13.125L13.125 3.125" stroke="white" stroke-width="2" stroke-linecap="round" stroke-linejoin="round"/>
<path d="M21.875 13.125L16.875 3.125" stroke="white" stroke-width="2" stroke-linecap="round" stroke-linejoin="round"/>
</svg>
