<svg width="20" height="20" viewBox="0 0 20 20" fill="none" xmlns="http://www.w3.org/2000/svg">
<path d="M10 0C4.4775 0 0 4.4775 0 10C0 15.5225 4.4775 20 10 20C15.5225 20 20 15.5225 20 10C20 4.4775 15.5225 0 10 0ZM14.6225 10.33C14.7442 10.5267 14.7117 10.7808 14.545 10.94C14.18 11.2883 13.435 11.6333 12.9375 11.5675L11.7683 9.68L13.5392 8.58333L14.6225 10.33V10.33ZM5 11.6692C5 11.0767 5.385 10.2783 5.67333 9.74L5.03333 9.32833L7.28333 9.07083L8.085 11.1642L7.4525 10.7642C6.835 11.765 6.2675 12.9367 6.62833 14.0542C5.585 13.17 5 12.49 5 11.6692V11.6692ZM9.58333 14.1667H7.5275C7.29667 14.1667 7.09667 14.0058 7.05 13.7792C6.94583 13.2858 7.04583 12.4708 7.36333 12.0833H9.58333V14.1667V14.1667ZM8.59333 9.01917L6.775 8.0025L7.77833 6.20833C7.89167 6.00583 8.12917 5.91083 8.35 5.98C8.83083 6.13 9.49333 6.61583 9.6775 7.08167L8.59333 9.01917ZM8.31583 5.4775C9.10917 5.18167 9.7475 5 10.29 5C11.2225 5 11.765 5.52667 12.5475 6.75083L13.2192 6.39333L12.345 8.4825L10.1275 8.16L10.785 7.80333C10.2125 6.77583 9.46667 5.70917 8.31583 5.4775V5.4775ZM13.8317 13.795C13.3283 14.1075 12.4342 14.2008 11.825 14.24V15L10.4208 13.2233L11.825 11.4392V12.1875C13.0008 12.185 14.2408 12.0483 15.0008 11.1542C14.7983 12.5075 14.5292 13.3625 13.8317 13.795V13.795Z" fill="url(#paint0_linear_2_233)"/>
<defs>
<linearGradient id="paint0_linear_2_233" x1="10" y1="0" x2="10" y2="20" gradientUnits="userSpaceOnUse">
<stop stop-color="#F48E77"/>
<stop offset="1" stop-color="#D85F2A"/>
</linearGradient>
</defs>
</svg>
